<svg xmlns="http://www.w3.org/2000/svg" viewBox="-0.0519486 19.775 1920 65.19">
	<path d="M 1920.12 78.063 V 55 c -0.545 -0.1275 -1.064 -0.267 -1.729 -0.4455 c -0.535 0.1725 -1.258 0.3975 -1.793 0.5685 c -0.723 -0.078 -1.691 -0.18 -2.42 -0.258 c 0.322 -0.4995 1.277 -1.137 2.26 -1.533 c 0.715 0.06 1.682 0.138 2.4 0.198 c -0.111 -0.219 -0.27 -0.516 -0.389 -0.7395 c -3.264 0.0315 -6.414 -0.414 -9.707 -0.264 c -0.371 -0.237 -0.867 -0.5475 -1.238 -0.7815 c 0.297 -0.231 0.689 -0.5415 0.984 -0.7755 c -0.637 -0.447 -2.199 -0.939 -3.543 -1.137 c -3.248 -0.4725 -6.748 -0.663 -10.119 -0.9915 c -0.201 -0.249 -0.471 -0.5865 -0.672 -0.831 c 1.502 -0.2805 3.482 -0.663 4.949 -0.9615 c -0.162 -0.5295 0.408 -1.2825 1.256 -1.7385 c 8.201 0.6885 8.201 0.6885 10.414 0.405 c -7.391 -1.551 -7.391 -1.551 -7.715 -2.0265 c -5.91 0.888 -9.484 -1.3395 -14.771 -1.281 c -0.098 -0.018 -10.719 -1.2765 -18.705 0.111 c -4.127 -0.4875 -5.184 -0.5085 -8.303 -0.3705 c -0.945 -0.4785 -2.934 -1.4805 -8.832 -1.4655 c -0.365 0.2325 -0.844 0.534 -1.207 0.759 c -2.967 0.948 -7.361 0.7575 -10.529 1.542 c 0.301 0.2535 0.695 0.594 0.99 0.8445 c -1.412 0.0465 -3.4 -0.1155 -4.611 -0.3705 c 0.232 0.2505 0.539 0.5865 0.764 0.8325 c -5.381 0.702 -11.068 -0.1425 -16.486 0.3735 c -0.186 0.246 -0.43 0.5775 -0.625 0.828 c -0.537 -0.171 -1.256 -0.4005 -1.783 -0.573 l -30.715 -1.8 c -1.875 1.098 -1.875 1.098 -6.215 1.5375 l -1.332 -0.1515 c -3.592 0.0555 -7.143 -0.3675 -10.746 -0.0915 c 0.096 0.249 0.242 0.5775 0.352 0.8265 c -7.084 0.1305 -9.139 0.138 -13.203 -1.308 c 0.65 0.0825 0.84 -0.0945 0.711 -0.246 c -0.068 -0.111 -0.246 -0.1335 -0.305 -0.1425 c -0.406 -0.039 -0.49 0.042 -0.666 0.3015 c -1.564 -0.5745 -3.42 -1.3365 -5.986 -2.412 c -0.781 0.06 -1.813 0.138 -2.59 0.198 c -0.217 -0.1155 -0.506 -0.2715 -0.713 -0.3915 c 0.404 -0.2115 0.936 -0.486 1.338 -0.6945 c -1.271 0.294 -3.273 0.5505 -4.801 0.6375 c -0.842 0.867 -3.322 1.296 -4.689 2.0265 c -1.52 0.009 -3.539 -0.0705 -5.021 -0.1635 c -0.193 0.258 -0.457 0.615 -0.652 0.879 c -2.955 0.327 -3.264 0.3615 -7.424 -0.039 c -1.053 0.333 -2.84 0.651 -4.23 0.753 c -2.561 0.8985 -2.561 0.8985 -9.656 1.398 c 3.018 0.507 3.75 0.594 7.25 0.696 c 0.432 0.2205 1 0.5145 1.422 0.7335 c -7.646 0.5865 -15.674 0.228 -23.217 1.0635 c 0.141 0.2625 0.33 0.6075 0.471 0.8655 c -6.754 -0.639 -12.996 -1.8345 -20.074 -2.133 c 0.129 -0.2445 0.285 -0.582 0.41 -0.8265 c -3.279 -1.0725 -8.51 -0.7455 -11.717 -1.869 c -0.637 0.1575 -1.479 0.366 -2.111 0.522 c -0.705 -0.1485 -1.65 -0.345 -2.357 -0.4905 c -0.34 0.1545 -0.785 0.351 -1.131 0.4995 c -5.834 -0.591 -11.957 -0.306 -17.875 -0.657 c 0.381 -0.3015 0.885 -0.7065 1.264 -1.0065 c -9.922 -1.233 -9.922 -1.233 -11.725 -1.5945 c -0.52 0.177 -1.203 0.4125 -1.715 0.594 c -0.441 -0.2025 -1.033 -0.465 -1.469 -0.663 c -0.143 0.495 -0.943 1.155 -1.865 1.542 c 4.727 0.4995 10.303 -0.267 14.43 1.116 c -1.535 0.0645 -3.6 0.1335 -5.15 0.177 c -0.199 -0.0615 -0.475 -0.1395 -0.684 -0.1995 c -0.051 0 -6.826 0.147 -13.816 -0.0555 c -2.527 0.246 -5.094 0.0315 -7.639 0.069 c -0.342 0.258 -0.789 0.606 -1.131 0.8655 c -0.365 -0.228 -0.85 -0.531 -1.211 -0.759 c -0.725 0.102 -1.689 0.2325 -2.408 0.3375 c 0.389 0.207 0.896 0.489 1.279 0.7065 c -0.756 0 -1.752 0.018 -2.504 0.027 c -0.273 -0.2325 -0.627 -0.543 -0.904 -0.7815 c -1.469 -0.138 -3.418 -0.3315 -4.875 -0.477 c -1.371 0.3 -3.111 0.762 -4.336 1.1325 c -0.178 -0.0975 -0.412 -0.231 -0.576 -0.3315 c 0.41 -0.216 0.977 -0.5055 1.395 -0.7185 c -6.479 -0.333 -12.75 -0.9915 -19.207 -1.353 c -0.379 0.129 -0.875 0.3015 -1.252 0.4305 c -0.691 -0.0825 -1.625 -0.1935 -2.314 -0.276 c 0.641 -0.159 1.504 -0.369 2.139 -0.5295 c 4.23 0.546 8.586 0.0075 12.861 0.171 c -0.014 -0.2625 -0.025 -0.612 -0.041 -0.87 c 1.072 0.3525 2.887 0.699 4.32 0.8445 c 0.141 -0.5415 0.35 -1.266 0.533 -1.8075 c 0.609 0.1575 1.41 0.369 2.025 0.5295 c -0.262 0.2805 -0.604 0.6585 -0.859 0.9435 c 0.621 -0.138 1.453 -0.318 2.072 -0.456 c -0.4 -0.237 -0.938 -0.552 -1.34 -0.789 c 0.504 -0.1965 1.172 -0.4605 1.68 -0.6585 c -0.74 0.0045 -1.719 0.009 -2.459 0.0195 c -0.475 -0.186 -1.113 -0.4395 -1.59 -0.63 c 0.096 -0.2715 0.219 -0.639 0.314 -0.9135 c -1.545 0.0045 -3.607 -0.033 -5.141 -0.087 c -0.33 -0.24 -0.785 -0.558 -1.121 -0.801 c 1.605 0.0615 3.736 0.1485 5.342 0.219 c -0.201 -0.267 -0.465 -0.624 -0.666 -0.891 c -0.785 0.0465 -1.822 0.1035 -2.598 0.1515 c -0.486 -0.219 -1.123 -0.513 -1.592 -0.726 c -2.945 -0.0345 -2.945 -0.0345 -9.662 0.9705 c 1.516 0.0525 3.537 0.099 5.059 0.1215 c 0.205 0.189 0.477 0.4395 0.676 0.6285 c -13.643 1.2225 -13.979 1.227 -17.203 1.284 c 0.596 0.4905 2.139 1.032 3.471 1.3005 c 0.33 0.534 1.086 1.227 1.934 1.683 c -0.461 0.0045 -1.084 0.0105 -1.543 0.015 c -0.385 -0.273 -0.896 -0.639 -1.281 -0.915 c -0.824 -0.0375 -1.92 -0.0855 -2.744 -0.1245 c 0.545 0.177 1.271 0.4095 1.814 0.582 c 0.182 0.138 0.424 0.3285 0.607 0.4695 c -1.486 0.039 -3.543 -0.129 -4.813 -0.393 c -0.123 -0.249 -0.295 -0.5775 -0.416 -0.831 c -15.297 -0.4485 -15.297 -0.4485 -17.43 -1.332 c 1.551 -0.18 3.455 -0.6195 4.506 -1.0515 c 1.031 0.372 2.908 0.7185 4.381 0.7935 c 0.496 -0.186 1.164 -0.435 1.666 -0.621 c -0.346 -0.24 -0.793 -0.5625 -1.135 -0.81 c -9.74 0.147 -9.74 0.147 -11.98 -0.645 c -0.08 0.162 -0.184 0.3825 -0.27 0.5415 c -4.701 -0.5685 -15.721 -1.92 -20.934 -0.138 c -0.277 -0.2415 -0.646 -0.561 -0.924 -0.7965 c -0.549 0.486 -1.457 1.116 -2.258 1.5645 c -4.623 -0.342 -7.252 1.197 -11.328 1.374 c -0.383 0.2445 -0.908 0.576 -1.297 0.822 c -0.697 -0.1215 -1.627 -0.276 -2.316 -0.3975 c 0.068 0.2685 0.164 0.63 0.236 0.906 c -0.799 -0.033 -1.852 -0.069 -2.648 -0.0945 c -0.324 -0.228 -0.762 -0.534 -1.084 -0.7665 c -0.742 -0.0135 -1.721 -0.0345 -2.463 -0.051 c 0.129 0.267 0.305 0.6195 0.449 0.8955 c -1.164 0.048 -1.164 0.048 -6.432 -0.675 c 0.082 0.2535 0.193 0.5895 0.283 0.84 c -0.807 -0.027 -1.895 -0.0615 -2.705 -0.0855 c -0.217 -0.252 -0.496 -0.582 -0.695 -0.8295 c -0.738 -0.0255 -1.717 -0.0555 -2.455 -0.0825 c -0.35 0.219 -0.818 0.51 -1.166 0.729 c -0.646 -0.1485 -1.504 -0.3375 -2.15 -0.4815 c -0.736 0.1455 -1.729 0.3525 -2.461 0.498 c -1.377 -0.2025 -3.262 -0.4305 -4.701 -0.5685 c 0.219 0.2505 0.508 0.5685 0.729 0.81 c -1.479 -0.1935 -3.34 -0.5775 -4.498 -0.948 c -0.58 0.177 -1.334 0.408 -1.912 0.5865 c -0.682 -0.102 -0.682 -0.102 -0.932 -0.189 c 0.084 -0.018 0.201 -0.0435 0.281 -0.0645 c -0.166 -0.0315 -0.41 -0.0705 -0.6 -0.0915 c -1.867 -0.147 -3.961 0.513 -5.68 -0.18 c -0.279 0.3915 -0.592 0.5895 -1.475 0.921 c -1.174 -0.156 -2.086 -0.513 -3.451 -0.534 c -1.229 -0.657 -1.229 -0.657 -1.828 -0.681 c 0.152 0.3105 0.293 0.3615 1.412 0.7935 c -1.633 0.327 -2.676 0.912 -4.49 1.155 c -0.779 0.102 -0.566 -0.402 -1.367 -0.3885 c -0.33 0.4995 -1.971 0.672 -2.43 1.137 c -1.025 -0.111 -2.121 0.1845 -3.127 -0.0645 c -0.031 -0.0045 -3.09 -0.8325 -3.986 -1.6965 c -0.879 -0.0135 -1.467 -0.2805 -2.34 -0.2985 c 0.047 -0.189 -0.072 -0.507 0.363 -0.6285 c 1.512 0.0465 1.512 0.0465 1.861 -0.087 c -0.227 -0.7665 -3.182 -0.276 -4.324 -0.723 c -0.877 0.0315 -0.826 0.4485 -1.721 0.474 c 0.908 0.5685 1.043 0.6555 2.238 0.702 c -0.174 0.4665 -2.014 0.4305 -2.266 0.87 c -0.551 -0.168 -1.287 -0.393 -1.836 -0.5595 c -0.783 0.0645 -0.594 0.4425 -1.4 0.495 c 0.975 0.3405 0.699 0.8355 1.34 1.2225 c -2.064 0.384 -4.709 0.033 -6.639 0.594 c -0.35 -0.198 -1.32 -0.126 -1.494 -0.402 c -0.354 0.0525 -0.354 0.0525 -0.303 0.4695 c -0.168 0.033 -0.373 0.078 -0.916 0.018 c -0.018 -0.027 -0.029 -0.06 -0.041 -0.0825 c 0.107 -0.048 0.23 -0.117 0.252 -0.177 c -0.229 -0.0255 -0.459 -0.0345 -0.699 -0.0345 c -0.26 0.3375 -0.268 0.534 -0.041 0.837 l 10.131 0.6465 c 2.309 0.057 4.633 0.1125 6.943 0.159 c 0.354 -0.2355 0.578 -0.2865 1.215 -0.1845 l 0.635 0.594 l 3.463 0.228 l -3.496 -0.228 c 0.021 0.009 0.039 0.0195 0.057 0.027 c -5.904 0.4665 -8.049 0.3915 -11.15 -0.051 c -0.135 -0.12 -0.305 -0.2835 -0.434 -0.414 c 0.809 -0.0465 1.916 -0.102 2.744 -0.129 c -2.934 -0.111 -6.846 -0.249 -9.773 -0.3615 c 0.227 0.2595 0.221 0.6285 0.047 0.8925 c -2.449 -0.0465 -2.449 -0.0465 -3.742 0.348 c -0.455 -0.1725 -1.248 -0.3525 -1.904 -0.4245 c -1.479 0.4755 -2.83 0.633 -6.932 0.279 c -0.412 0.2175 -0.859 0.5265 -1.057 0.768 c 1.18 0.408 1.18 0.408 4.746 0.6195 c 0.42 -0.1455 0.982 -0.3405 1.393 -0.486 c 0.885 0.2835 1.51 0.6585 2.582 0.87 c -0.084 0.5595 -0.084 0.5595 -1.91 1.1505 c 0.402 0.5265 1.613 0.969 1.344 1.5585 c -0.861 0.069 -1.99 0.207 -2.795 0.336 c -2.395 -0.3315 -2.395 -0.3315 -4.207 -0.387 c -0.238 0.111 -0.551 0.258 -0.777 0.3705 c -1.314 -0.06 -2.475 -0.3195 -3.82 -0.3525 c -0.264 0.087 -0.619 0.1935 -0.883 0.276 c -1.309 -0.0945 -2.666 -0.06 -3.971 -0.156 c 0.152 -0.393 0.152 -0.393 -0.438 -1.4655 c 3.08 0.0345 3.08 0.0345 3.371 -0.003 c -0.049 -0.1215 -0.117 -0.2835 -0.166 -0.4065 c -2.336 -0.1335 -2.336 -0.1335 -3.271 -0.4395 c -0.936 0.0225 -2.313 -0.0045 -3.084 -0.1845 c -0.092 0.0375 -0.197 0.0735 -0.342 0.0945 c -0.006 0 -0.014 0 -0.014 0 c -0.055 0.0045 -0.104 0.009 -0.156 0.009 h -0.006 h -0.01 c 0.139 -0.0765 0.318 -0.1155 0.527 -0.102 c -0.021 -0.2595 -0.055 -0.6015 -0.061 -0.861 c 0.598 0.162 1.264 0.429 1.672 0.6495 c 0.359 -0.012 0.832 -0.0375 1.184 -0.0555 c -0.352 -0.207 -0.646 -0.5265 -0.67 -0.7575 c 1.447 -0.306 3.145 -0.3525 4.721 -0.5265 c 0.275 0.0945 0.646 0.2235 0.922 0.318 c 0.201 -0.0945 0.459 -0.2235 0.664 -0.318 c 0.637 0.087 1.59 0.1155 2.273 0.078 c -3.172 -1.5255 -8.512 0.2805 -11.908 -0.888 c -1.143 0.0225 -2.297 -0.06 -3.42 0.066 c -0.592 -0.1605 -1.324 -0.3885 -1.834 -0.5745 c 0.123 -0.138 0.279 -0.327 0.404 -0.4695 c -0.309 -0.063 -0.713 -0.1545 -1.02 -0.222 c -0.061 0.237 -0.092 0.564 -0.074 0.804 c -0.455 -0.1695 -0.799 -0.4905 -0.762 -0.7215 c -1.289 -0.2685 -2.436 -0.6105 -3.678 -0.906 c -0.203 0.2415 -0.533 0.5505 -0.828 0.7755 c -0.338 -0.051 -0.787 -0.111 -1.129 -0.162 c -0.094 -0.228 -0.541 -0.522 -1.039 -0.6795 c -0.377 0.219 -0.623 0.558 -0.68 0.8175 c -0.449 -0.2505 -0.857 -0.6285 -1.035 -0.918 c -1.68 0.117 -1.744 0.1215 -3.824 -0.0465 c -0.324 -0.216 -0.568 -0.531 -0.578 -0.771 c -0.6 0.5895 -0.6 0.5895 -17.01 -0.366 c -0.508 0.207 -1.203 0.4695 -1.732 0.663 c -0.484 -0.1905 -1.275 -0.3975 -1.92 -0.5175 c -0.516 0.1635 -1.074 0.4395 -1.371 0.6555 c -0.885 -0.69 -3.182 -0.81 -4.514 -1.323 c -3.494 -0.021 -3.494 -0.021 -4.066 0.0045 c 2.033 -0.897 2.033 -0.897 3.191 -1.0725 c 0.252 0.0945 0.594 0.219 0.84 0.3135 c 0.365 -0.2235 1.037 -0.4905 1.592 -0.6675 l -3.279 -0.1845 l -0.023 0.1635 l -1.672 -0.0945 l 0.023 -0.1605 c -28.301 -1.476 -28.951 -1.3995 -30.52 -1.2105 c 0.873 0.7035 0.873 0.7035 5.135 0.8415 c 0.383 0.255 0.953 0.5895 1.418 0.837 c -1.535 1.521 -7.232 0.15 -9.076 1.476 c -1.604 -0.3615 -4.031 0 -5.26 -0.69 c -0.268 0.957 1.295 1.533 3.982 1.4775 c -0.17 0.1245 -0.396 0.288 -0.574 0.408 c -3.004 0.363 -3.004 0.363 -3.582 0.4905 c -0.578 -0.1545 -1.473 -0.3 -2.168 -0.375 c -0.148 0.4275 0.246 0.849 0.139 1.275 c -0.836 0.0435 -1.924 0.2475 -2.428 0.4785 c -1.742 -0.405 -3.924 -0.4905 -5.711 -0.8685 c -4.678 0.4485 -4.678 0.4485 -5.893 0.3525 c -0.361 -0.204 -1.129 -0.423 -1.775 -0.51 c -0.295 0.2175 -0.471 0.546 -0.4 0.7815 c -0.254 -0.0915 -0.592 -0.216 -0.852 -0.3105 l -1.127 0.315 c -4.871 -0.6795 -4.834 -1.413 -3.938 -1.905 c -0.799 -0.147 -0.799 -0.147 -4.775 -0.336 c -0.217 -0.0945 -0.508 -0.2325 -0.727 -0.3375 c 2.814 -0.069 2.814 -0.069 3.473 -0.1845 c -0.225 -0.1065 -0.518 -0.2445 -0.744 -0.354 c -3.643 -0.15 -3.643 -0.15 -5.043 -0.0285 c 0.447 0.1965 0.92 0.5025 1.059 0.7485 c -1.373 0.1665 -2.873 0.219 -4.146 0.4815 c 0.422 0.198 0.91 0.474 1.197 0.684 c 3.102 0.156 2.844 1.371 5.006 1.8225 c 1.512 0.315 3.297 -0.033 4.83 0.228 c -0.43 0.1845 -1.264 0.3615 -1.92 0.432 c 0.656 0.357 1.965 0.4695 2.707 0.7965 c -0.281 0.087 -0.674 0.198 -0.965 0.282 c -1.35 -0.3795 -1.674 -0.4725 -3.449 -0.111 c -1.154 -0.111 -2.387 -0.0855 -3.531 -0.207 c -0.232 0.249 -0.822 0.564 -1.414 0.732 c 0.34 0.327 0.836 0.7575 1.262 1.077 c 1.135 0.129 3.061 0.246 5.832 0.069 c -0.043 0.2925 -0.318 0.6885 -0.658 0.9645 c -0.611 -0.0945 -1.57 -0.129 -2.232 -0.0765 c 0.322 0.033 0.766 0.0915 1.096 0.1275 c -2.256 0.3975 -5.191 -0.138 -7.193 0.612 c -0.334 -0.051 -0.781 -0.117 -1.111 -0.1635 c -0.117 0.117 -0.291 0.273 -0.41 0.3885 c -2.076 -0.336 -2.076 -0.336 -4.184 -1.473 c -2.984 -0.189 -6.033 -0.2235 -9.02 -0.4125 c -0.225 0.018 -0.51 0.0345 -0.725 0.0435 c -1.172 -0.327 -1.172 -0.327 -4.463 -0.294 c -0.189 0.1215 -0.447 0.2775 -0.643 0.393 c -2.918 -0.999 -2.918 -0.999 -5.203 -0.822 c -0.268 -0.0705 -0.627 -0.1725 -0.885 -0.2415 c 0.99 -0.171 0.99 -0.171 3.445 -0.219 c 0.453 -0.1815 1.045 -0.426 1.494 -0.606 c 3.365 0.18 3.365 0.18 6.035 0.861 c 0.342 -0.027 0.791 -0.06 1.129 -0.087 c 0.201 0.09 0.484 0.216 0.703 0.309 c 5.676 -0.4815 3.926 -1.2915 1.02 -2.6445 c -3.066 0.2505 -3.303 0.24 -5.469 0.078 c -0.338 -0.228 -0.662 -0.561 -0.785 -0.8085 c 0.373 -0.048 0.867 -0.105 1.238 -0.156 c 0.973 0.216 2.211 0.195 3.164 0.4185 c 0.201 -0.099 0.459 -0.2295 0.664 -0.333 c -0.688 -0.12 -1.51 -0.336 -2.076 -0.516 c -2.027 0.282 -4.48 -0.1485 -6.33 0.429 c 0.232 0.2235 0.563 0.5265 0.799 0.75 c -2.143 -0.3975 -4.051 -0.9225 -6.152 -1.347 c -0.258 -1.152 1.211 -1.341 2.387 -1.4865 c -0.867 -0.69 -0.49 -0.8955 0.732 -1.4085 c 0.383 0 0.891 0 1.277 0 c 1.879 0.8565 1.879 0.8565 4.094 0.936 c 0.092 -0.162 0.209 -0.3795 0.305 -0.543 c 0.941 -0.051 2.158 -0.216 2.969 -0.384 c 0.059 -0.1155 0.117 -0.2805 0.166 -0.399 c 0 0 0 0 0.012 0.0075 c -0.209 -1.4445 -0.209 -1.4445 -1.559 -1.8345 c -0.303 0.0855 -0.705 0.1935 -1.01 0.276 c -0.643 -0.147 -1.275 -0.474 -1.463 -0.732 c -0.857 -0.108 -0.857 -0.108 -3.43 -1.0935 c -0.699 0.0465 -1.662 0.0945 -2.379 0.102 c -0.453 -1.5585 -0.438 -1.662 -0.205 -2.286 c 0.691 0.0555 1.627 0.1245 2.328 0.159 c 0.207 0.102 0.479 0.249 0.693 0.3525 c 0.18 -0.108 0.43 -0.2595 0.611 -0.366 c -0.006 0 -0.012 0 -0.018 0 c 0.117 -0.4185 -0.184 -0.777 -1.006 -1.194 c -1.299 0.177 -2.652 0.357 -4.162 -0.0075 c -0.602 -0.153 -0.822 -0.393 -0.885 -0.474 c -0.25 -0.2685 -0.119 -0.543 -0.26 -0.819 c -0.016 -0.027 -0.053 -0.0585 -0.076 -0.09 c -0.523 0.1065 -1.166 0.2445 -1.488 0.6495 c -0.404 0.51 -0.146 1.0395 -0.264 1.551 l 3.236 0.156 c -1.111 -0.054 -2.246 -0.105 -3.205 -0.1485 c -0.385 0.699 -0.385 0.699 -1.787 0.921 c -0.33 -0.195 -1.078 -0.405 -1.717 -0.477 c -0.074 0.246 -0.164 0.573 -0.229 0.813 c 0.264 0.105 0.615 0.246 0.873 0.3525 c -0.365 0.117 -0.842 0.273 -1.203 0.3975 c 0.227 0.087 0.525 0.2085 0.754 0.3015 c -0.301 0.5085 -0.744 0.999 -0.965 1.5075 c 0 0.009 0.854 2.844 1.014 3.774 c 0.676 0.111 1.486 0.3285 1.979 0.522 c 0.354 -0.03 0.828 -0.078 1.178 -0.1065 c 0.297 0.0585 0.68 0.1455 0.967 0.2115 c -0.129 0.1155 -0.309 0.2805 -0.447 0.3915 c -2.02 0.078 -2.02 0.078 -4.139 -0.0255 c -0.174 -0.1125 -0.408 -0.2595 -0.582 -0.3705 c 0.361 -0.0225 0.842 -0.057 1.203 -0.078 c -0.561 -0.1635 -1.49 -0.315 -2.223 -0.3615 c -1.166 -2.2755 0.695 -4.644 -1.908 -6.876 c -0.332 0.213 -0.975 0.468 -1.557 0.6045 c 0.082 0.138 0.189 0.318 0.271 0.456 c -0.271 0.078 -0.625 0.1815 -0.885 0.2595 c -0.453 -0.81 -0.482 -0.8205 -2.25 -1.1475 c -0.039 -0.06 -0.072 -0.147 -0.107 -0.2115 c -0.178 0.531 -0.178 0.531 0.471 1.323 l -1.578 4.6995 c -0.592 0.1425 -1.273 0.3825 -1.65 0.591 c -0.35 -0.009 -0.814 -0.0135 -1.17 -0.027 c 0.086 0.1395 0.178 0.3195 0.252 0.4575 c 5.066 0.693 -0.119 2.721 2.955 3.7995 c 0.402 -0.0315 0.939 -0.066 1.338 -0.096 c 0.865 -1.368 0.795 -1.8165 0.682 -2.631 c 2.719 0.273 2.719 0.273 8.297 -0.0375 c 0.021 0.249 -0.035 0.5865 -0.156 0.831 c 0.693 0.057 1.594 0.159 2.254 0.246 c -0.277 0.0945 -0.635 0.2235 -0.908 0.318 c -1.852 -0.4395 -2.096 -0.498 -7.965 0.4575 c -0.215 0.267 -0.197 0.6555 -0.043 0.9255 c 1.941 0.207 2.033 0.4365 2.18 0.849 c -0.783 0.0165 -1.848 0.0165 -2.623 -0.009 c -1.344 0.555 -1.344 0.555 -4.229 0.6615 c -0.658 0.4665 -0.658 0.4665 -0.83 1.284 c 0.355 1.998 0.355 1.998 -2.074 2.109 c -0.807 -1.407 -0.656 -1.965 -0.598 -2.2305 c 0.352 -0.5085 0.438 -0.642 1.518 -0.525 c -0.141 -0.3885 -1.379 -0.621 -1.227 -1.0425 c 0.043 -0.1155 0.389 -0.1665 0.477 -0.273 c 0.219 -0.219 0.254 -0.4515 0.408 -0.675 c 0.293 -0.4215 1.264 -0.5265 1.271 -0.5265 c -0.363 -0.4815 -1.719 -0.735 -2.365 -1.1535 c -0.049 -0.066 -0.115 -0.156 -0.154 -0.219 c -2.977 0.3315 -0.023 1.623 -2.57 2.079 l -0.055 2.223 c 0.018 1.041 0.049 2.442 0.064 3.4935 c 0.346 0.0255 0.793 0.0555 1.133 0.0825 c 0.379 0.711 0.379 0.711 -1.25 1.4895 l 0.006 0.5415 c -0.27 -0.3435 -0.697 -0.645 -1.41 -0.8685 c 0.275 -0.3975 0.275 -0.3975 -0.492 -1.092 c 0.541 -0.0825 1.314 -0.15 1.902 -0.1575 l 0.047 -3.489 c -21.717 -0.81 -48.926 -1.818 -73.258 -2.715 c 1.242 0.51 3.857 1.7835 3.879 1.7955 c 0.59 0.315 0.541 0.423 0.455 0.633 c 0.924 -0.0255 1.148 0.402 2.066 0.381 c 0.084 0.3885 1.045 0.726 0.523 1.14 c -1.775 -0.15 -2.484 -0.351 -3.986 -1.1325 c -0.428 -0.216 -0.945 -0.486 -1.605 -0.6795 c -0.117 -0.0345 -0.283 -0.078 -0.406 -0.1125 c 0.041 -0.327 0.037 -0.387 -0.486 -0.732 c -0.16 -0.0975 -0.535 -0.3345 -0.496 -0.4995 c 0.01 -0.0645 0.135 -0.1635 0.051 -0.2265 c -0.279 -0.219 -0.947 -0.345 -1.211 -0.5655 c -0.014 -0.0165 0 -0.03 0.002 -0.0465 c -7.139 -0.264 -14.057 -0.5205 -20.451 -0.7545 c 0.672 0.534 0.756 0.5385 2.104 0.6525 c 0.055 0.0825 0.055 0.0825 4.016 2.562 c -2.016 -0.078 -2.271 -0.87 -3.891 -1.107 c 0.119 -0.087 0.281 -0.2025 0.412 -0.288 c -0.447 -0.0315 -1.047 -0.069 -1.496 -0.102 c -1.238 -0.663 -2.205 -1.374 -3.371 -2.0505 c -20.393 -0.675 -47.578 -1.5765 -67.971 -2.2515 c -0.113 0.975 -0.527 4.2495 -1.201 5.235 c -0.381 0.0315 -0.885 0.0705 -1.266 0.1005 c -1.041 1.3515 -1.041 1.3515 -2.732 1.623 c -1.031 -0.711 -1.533 -1.494 -2.438 -2.2185 c 0.031 -0.0945 0.092 -0.2235 0.141 -0.318 c -0.189 -0.072 -0.438 -0.1725 -0.615 -0.2445 c 0.623 -1.356 0.684 -2.223 0.309 -4.416 c -0.881 -0.0255 -2.051 -0.06 -2.928 -0.087 c 0.012 0.789 0.012 0.789 -2.107 3.7215 c 0.221 0.066 0.529 0.156 0.756 0.216 l -0.744 0.561 l 0.465 0.429 c -2.787 1.9215 4.615 4.503 -2.539 6.048 c 0.4 0.1395 0.934 0.3195 1.34 0.447 c -2.367 1.974 -1.6 3.1575 -1.316 3.606 c 19.498 0.555 42.885 1.3215 65.465 2.0805 c -22.566 -0.7065 -45.953 -1.3965 -65.414 -2.0055 c 0.125 0.1935 0.041 0.4695 -0.133 0.654 c -0.566 0.051 -1.299 0.1455 -1.811 0.2355 c -0.148 0.219 -0.537 0.5145 -0.955 0.69 c 0.1 0.1155 0.229 0.276 0.324 0.3885 c -0.52 0.0915 -1.086 0.288 -1.391 0.4575 c -0.535 -0.078 -1.26 -0.159 -1.809 -0.216 c 2.09 0.9435 -0.832 1.8225 -1.775 2.0715 c -0.26 -0.0345 -0.605 -0.0825 -0.873 -0.1155 c -0.246 0.0375 -0.584 0.0915 -0.838 0.1335 c 0.184 0.5685 0.184 0.5685 -1.613 1.98 c -2.439 -0.5175 -2.439 -0.5175 -0.26 -3.237 c 0.342 0.0315 0.799 0.084 1.154 0.123 c -0.064 -0.0975 -0.141 -0.228 -0.201 -0.3225 c -0.295 0.0165 -0.688 0.042 -0.99 0.06 c 0.119 -0.1155 0.285 -0.2775 0.402 -0.387 c 1.158 -0.1815 2.453 -0.243 3.547 -0.474 c -0.281 -0.0435 -0.67 -0.102 -0.953 -0.147 c -0.52 0.0735 -1.295 0.0945 -1.846 0.06 c 0.107 -0.087 0.242 -0.207 0.344 -0.288 c -1.045 -0.4785 -2.33 -1.068 -0.75 -2.028 c 0.018 -0.294 -0.896 -0.4275 -1.025 -0.699 c -0.16 -0.327 0.438 -0.6375 0.23 -0.9735 c -0.041 -0.0645 -0.252 -0.138 -0.359 -0.198 c -0.654 -0.3615 -1.086 -0.87 0.578 -1.215 c -0.168 -0.681 -0.191 -0.7845 0.662 -0.828 c -0.025 -0.255 -1.039 -0.327 -0.898 -0.6015 c 0.135 -0.2685 0.354 -0.333 1.557 -0.672 c -0.939 -0.7155 -0.652 -1.5915 -2.475 -2.184 c -0.084 0.546 -1.344 3.195 -1.355 3.219 c -0.061 0.102 -0.408 0.198 -0.639 0.267 c 0.09 0.3435 0.521 0.4305 1.379 0.6105 c -2.816 0.9915 -0.816 1.314 -0.152 1.422 c -0.367 0.1335 -0.99 0.0975 -1.344 0.2355 c -0.459 -0.1065 -0.381 -0.2955 -0.555 -0.4485 c -0.207 -0.012 -0.486 -0.012 -0.684 -0.0045 c -0.111 0.3975 1.189 0.6435 0.941 1.0515 c -0.227 0.3615 -1.438 0.3705 -1.975 0.621 c -0.275 -0.1995 -2.633 -1.965 0.434 -2.3955 c -1.227 -0.441 -0.438 -4.308 0.506 -4.674 c -0.934 -0.4515 -1.557 -0.6675 -2.703 -0.9255 c 0.205 -0.534 0.205 -0.534 -0.91 -1.107 c 1.225 -0.228 1.225 -0.228 1.078 -0.462 c -0.389 -0.054 -0.906 -0.12 -1.297 -0.18 c 0.564 -0.228 0.32 -0.555 0.785 -0.801 c 0.111 -0.0045 0.264 -0.012 0.369 -0.0165 c -1.744 -0.4665 -1.744 -0.4665 -2.316 -0.888 c -0.795 0.1545 -1.43 0.0345 -2.115 -0.3975 c 0.383 -0.0315 0.889 -0.078 1.273 -0.102 c -0.717 -1.0695 1.137 -2.0595 0.873 -3.111 c -1.154 -0.0255 -2.699 -0.06 -3.861 -0.0825 c -0.066 0.027 -0.158 0.057 -0.229 0.0825 c -0.215 -0.021 -0.479 -0.0765 -0.637 -0.1335 c -0.012 -0.0045 -0.721 -1.734 -0.689 -2.0355 c 0.021 -0.2685 0.523 -0.483 0.67 -0.7335 c 0.525 -0.8775 -0.611 -1.725 -0.336 -2.592 c 0.061 -0.2295 0.557 -0.4905 0.908 -0.6855 c -0.484 -0.6255 -0.484 -0.6255 -0.961 -0.7545 c 0.855 -0.8175 0.879 -1.1625 0.723 -1.9545 c -0.15 -0.7425 0.107 -0.81 0.779 -0.906 c -0.611 -0.207 -0.611 -0.207 -0.094 -1.017 c -0.277 -0.138 -0.646 -0.3105 -0.92 -0.4485 c 0.873 -1.167 0.934 -1.938 0.969 -4.2135 c 0.002 0 0.008 0 0.008 0 c 0.049 -1.4565 0.049 -1.4565 0.648 -3.1695 c -0.906 0 -0.619 -0.3975 -1.289 -0.4905 c 0.303 -0.4395 0.678 -0.99 -0.689 -2.016 c -0.094 -0.06 -0.223 -0.138 -0.318 -0.1905 c -1.631 0.672 -1.932 0.798 -2.369 1.1715 c -0.416 0.3525 0.119 0.732 -0.156 1.086 c -0.211 0.267 -1.047 0.4125 -1.221 0.69 c -0.035 0.051 0.07 0.111 0.1 0.162 c 0.016 0.027 1.148 2.091 -2.117 2.4045 c 0.023 0.0045 0.051 0.0135 0.068 0.018 c 0.139 0.042 0.275 0.087 0.381 0.138 c 0.154 0.0045 0.33 0.0105 0.494 0.015 c -0.174 -0.0045 -0.361 -0.0105 -0.525 -0.015 c 0.736 0.4215 -0.73 0.6555 -0.742 1.017 c -0.012 0.231 0.701 0.5115 0.678 0.75 c -0.01 0.0975 -0.1 0.231 -0.146 0.3315 c -0.877 1.722 -1.496 1.791 -1.785 1.827 c -0.744 0.0825 -0.803 0.117 -0.66 0.384 c -0.129 -0.0315 -0.129 -0.0315 -0.918 -0.603 c -0.123 -0.0045 -0.297 -0.018 -0.426 -0.027 c -0.059 -0.417 1.656 -0.6555 0.998 -1.128 c -1.148 -0.069 -2.338 -0.1305 -4.377 0.7215 c -0.654 0.282 1.049 0.381 1.08 0.663 c -0.082 0.0195 -0.184 0.039 -0.262 0.0525 c -0.045 0.009 -0.082 0.018 -0.246 0.033 c -1.314 0.0435 -1.709 -0.387 -2.064 -0.9 c -1.424 -0.0315 -2.557 -0.366 -3.961 -0.417 c -0.582 0.525 -0.6 1.0935 -1.24 1.614 c -0.586 0.4695 -0.775 0.504 -1.541 0.642 c 0.492 0.5265 -0.26 1.038 -0.098 1.56 c 0.037 0.1635 0.674 0.336 0.723 0.4995 c 0.012 0.051 0.006 0.1215 0.012 0.1725 c -0.012 0.1125 -0.402 0.207 -0.682 0.279 c -0.65 0.165 -0.613 0.2595 -0.514 0.528 c -1.072 -0.075 -1.963 -0.3105 -3.037 -0.3885 c -0.27 -1.2315 0.543 -2.451 0.428 -3.6825 c -0.049 -0.555 -0.951 -1.05 -0.934 -1.611 c 0.012 -0.2925 0.164 -0.336 0.719 -0.5085 c -0.836 -0.147 -1.861 -0.147 -2.627 -0.3525 c -0.072 0.0345 -0.201 0.078 -0.232 0.1215 c -0.383 0.4905 0.338 0.9795 -0.021 1.47 c -0.26 0.345 -1.42 0.483 -1.668 0.8295 c -0.049 0.054 -0.096 0.1335 -0.129 0.1935 c -0.072 0.1155 0.068 0.279 0.164 0.4005 c -2.063 1.077 -3.186 2.31 -4.822 3.4545 c -0.213 0.144 -0.666 0.306 -0.789 0.4665 c -0.281 0.336 1.076 0.435 0.979 0.7485 c -0.273 0.8625 -2.223 1.629 -1.369 2.568 c -1.391 0.888 -1.008 1.9425 -2.369 2.835 c -0.555 0.2355 -0.738 0.276 -1.488 0.3795 c 0.016 0.051 0.025 0.12 0.043 0.171 c 0.373 0.1035 0.373 0.1035 1.295 0.144 c -0.307 0.525 -0.445 0.675 -1.596 0.684 c 1.014 0.6015 1.014 0.6015 -0.959 1.9725 c -0.707 0.4995 0.396 0.966 0.252 1.4475 c -0.063 0.2115 -0.309 0.4815 -0.506 0.6855 c -0.424 0.453 -1.102 0.873 -1.455 1.3335 c -0.168 0.2385 0.207 0.6 -0.164 0.8055 c -0.945 0.531 -2.713 0.6915 -4.051 1.0395 c 0.07 0.1515 0.154 0.3465 0.221 0.495 c -0.238 0.0435 -0.541 0.102 -0.762 0.1545 l 1.201 5.7285 c -37.133 -0.852 -75.148 3.438 -111.468 -2.2095 c 0.224 -0.6165 0.224 -0.6165 -0.171 -0.813 c 1.508 0.1455 1.726 0.24 1.94 0.8475 c 32.924 0.5805 76.793 1.5195 109.699 2.1735 c -0.414 -1.7055 -0.959 -3.9885 -1.379 -5.694 c -0.477 0.06 -1.154 0.1065 -1.662 0.111 c -0.08 -0.06 -0.184 -0.138 -0.252 -0.198 c 2.83 -0.597 -0.098 -1.6545 1.633 -2.334 c 0 -0.009 0.006 -0.009 0.012 -0.009 c 0.209 -0.1035 0.191 -0.195 -0.055 -0.3285 l -0.025 -0.009 l -0.023 -0.111 c -0.344 -1.5465 -0.803 -3.609 -1.154 -5.16 c -0.18 0.042 -0.432 0.0945 -0.611 0.138 c 0.637 0.4575 0.549 0.5085 -0.059 0.828 c -1.061 -0.2415 -1.834 -0.621 -3.111 -0.7665 c -0.096 0.4995 -1.014 0.9645 -0.633 1.4925 c 0.281 0.048 0.672 0.1125 0.957 0.1605 c 0.221 -0.0345 0.516 -0.0795 0.734 -0.1215 c 0.336 0.078 0.689 0.2325 0.795 0.3615 c -0.178 0.039 -0.424 0.0915 -0.607 0.129 c -0.76 -0.0945 -1.482 -0.2235 -2.242 -0.327 c -0.143 0.336 -0.572 0.6465 -0.699 0.9825 c -2.357 0.123 -2.357 0.123 -3.01 0.2055 c 0.658 0.5955 0.658 0.5955 0.008 0.939 c -0.473 -0.0075 -1.104 -0.051 -1.547 -0.111 c 0.59 0.783 0.596 0.801 -0.252 1.1565 c -0.242 -0.0795 -0.561 -0.1725 -0.803 -0.2505 c 0.285 -0.1215 0.762 -0.2475 1.156 -0.324 c -3.1 -1.245 0.004 -2.61 -0.703 -3.8985 c -2.154 -0.333 -2.381 -0.3675 -3.923 -0.3795 c -1.023 1.0815 -1.818 2.1795 -2.7 3.2655 c -2.49 -0.1575 -2.49 -0.1575 -2.717 -0.129 c 0.299 0.156 0.646 0.36 0.873 0.525 c -0.16 0.0525 -0.339 0.1395 -0.528 0.1725 c -2.488 0.453 -3.665 0.069 -3.519 -1.158 c 0.348 -0.09 0.845 -0.1935 1.244 -0.2505 l -0.459 -0.2865 c 2.262 -1.0695 1.898 -4.3905 1.886 -4.4205 c -4.223 -0.033 -9.866 -0.078 -14.096 -0.1095 c -0.241 0.129 -0.707 0.276 -1.118 0.3345 c -0.252 0.9135 -0.252 0.9135 -1.903 2.559 c -0.012 0 -1.108 -0.897 -1.672 -1.6875 c 0.216 -0.0225 0.517 -0.0465 0.741 -0.066 c -1.66 -0.2445 -1.66 -0.2445 -2.476 -0.2445 c 0.023 0.147 0.164 0.3405 0.342 0.4725 c -1.792 0.2325 -2.298 0.612 -2.254 1.6845 c -0.368 0.0825 -0.858 0.1935 -1.224 0.2805 c 0.253 0.69 -1.792 1.2585 -0.953 1.98 c -0.953 0.2595 -1.8 0.57 -2.809 0.8055 c -0.505 -0.09 -1.355 -0.2445 -1.333 -0.7485 c 0.086 -1.9605 1.77 -3.894 0.982 -5.8755 c -1.117 -0.0135 -2.602 -0.0375 -3.704 -0.0735 h -0.069 c -0.474 -0.012 -1.12 0.018 -1.557 0.0795 c 0.942 0.618 1.02 0.705 0.236 1.179 c -1.861 -0.255 -2.194 -0.5775 -2.789 -1.344 c -0.56 -0.7275 -1.019 -0.9315 -2.432 -1.086 c 0.641 -1.0185 -1.618 -1.7595 -2.189 -2.655 c -0.182 -0.2925 0.09 -0.5865 -0.154 -0.879 c -0.277 -0.3375 -1.179 -0.5595 -1.442 -0.9 c -0.313 -0.393 0.083 -0.7965 -0.2 -1.185 c -0.146 -0.207 -0.685 -0.3315 -0.907 -0.5205 c -0.75 -0.636 -0.042 -1.362 -0.974 -1.9905 c -0.254 -0.1695 -1.15 -0.2805 -1.255 -0.4665 c -0.129 -0.2115 0.589 -0.219 0.771 -0.3615 c 0.013 -0.0045 -0.494 -1.503 -1.738 -2.211 c -0.224 -0.072 -0.531 -0.1665 -0.755 -0.24 c -0.437 1.1625 1.314 2.214 1.486 3.3555 c 0.052 0.408 -0.979 0.7305 -0.844 1.1505 c 0.07 0.228 0.879 0.2925 0.974 0.5085 c -0.584 0.2235 -0.719 0.276 -0.755 0.5505 c 0.165 0.138 0.579 0.3105 0.555 0.456 c -0.048 0.243 -0.625 0.411 -0.754 0.639 c -0.495 0.9645 1.532 1.731 1.756 2.6415 c 0.06 0.231 0.06 0.231 -0.631 0.9855 c -0.229 0.249 0.507 0.408 0.513 0.6375 c 0.011 0.216 -0.872 0.249 -0.801 0.4725 c 0.083 0.2925 1.208 0.4185 1.025 0.75 l -0.484 0.156 c -0.129 0.0255 -0.306 0.0645 -0.437 0.099 c -0.199 -0.039 -0.458 -0.087 -0.659 -0.126 c -2.971 -0.0165 -6.933 -0.0345 -9.902 -0.051 c -0.531 0.672 -0.531 0.672 0.01 1.014 c -0.376 0.081 -0.871 0.18 -1.249 0.261 c 0.459 0.2085 1.061 0.3795 1.425 0.6075 c -1.513 1.728 -0.448 3.6315 -3.159 5.2815 c -1.756 -0.396 -1.756 -0.396 -2.21 -0.465 c 1.149 -1.728 -1.003 -3.495 0.537 -5.2095 c -1.15 -0.5265 -0.685 -1.179 -1.286 -1.74 c -3.195 -0.0465 -7.451 -0.102 -10.644 -0.138 c -0.573 0.3195 -0.573 0.3195 0.465 1.2915 c -0.218 0.0285 -0.512 0.051 -0.736 0.0795 c -0.919 -0.3195 -0.974 -0.3375 -1.192 -1.467 c -0.636 0.0345 -1.483 0.0795 -2.121 0.1125 c -0.495 0.543 -0.495 0.543 -1.179 0.8235 c -0.484 -0.3975 -0.755 -0.6165 -2.748 -0.927 c 0.296 0.1905 0.685 0.4365 0.979 0.621 c -0.389 0.231 -1.055 0.369 -1.602 0.546 c 0.153 0.8235 -0.402 1.6425 -0.249 2.46 c -0.655 -0.1065 -0.655 -0.1065 -2.865 -0.7815 c -0.194 0.024 -0.448 0.051 -0.636 0.078 c 0.035 0.558 -1.461 0.939 -1.509 1.485 c -0.042 0.504 1.378 0.8475 1.273 1.356 c -0.013 0.087 -0.283 0.18 -0.402 0.2595 c -0.364 -0.0795 -0.824 -0.186 -1.167 -0.2775 c -0.181 0.03 -0.435 0.069 -0.623 0.0945 c 2.287 0.8565 -0.178 2.0205 1.626 2.907 c -1.993 1.3305 -0.249 2.781 -1.108 4.1475 c -0.884 -0.0675 -1.538 -0.3405 -2.517 -0.327 c 0.006 -0.8835 1.397 -1.674 1.421 -2.559 c 0.01 -0.5775 -1.245 -1.0365 -1.311 -1.6095 l 0.249 -0.5775 l 0.755 -0.432 c -2.724 -1.206 0.766 -3.126 -4.062 -4.095 c 0.808 -0.228 0.913 -0.3015 0.63 -1.0215 c -1.615 -0.267 -1.615 -0.267 -2.352 -0.219 c -0.334 0.246 -0.583 0.495 -0.826 0.75 c -1.13 -0.0825 -1.13 -0.0825 -5.25 -3.2745 c -0.915 0.039 -2.133 0.078 -3.054 0.1065 c 0.707 1.0095 -0.909 2.013 -0.013 3.0165 c -0.365 0.078 -0.847 0.1815 -1.208 0.2685 c 0.017 0.021 1.503 2.877 -0.607 4.032 c 1.621 1.6365 1.162 1.9725 -1.061 2.1615 c 0.005 0.2715 0.005 0.2715 1.014 0.735 c -0.354 0.1995 -0.354 0.1995 0.96 1.8825 c -0.458 0.0525 -1.065 0.1215 -1.532 0.1725 c 0.313 0.108 0.831 0.2235 1.262 0.258 c -4.603 0.483 -4.603 0.483 -3.908 1.0335 c 0.89 0.0465 0.926 0.051 2.039 -0.201 c 0 0.0975 0 0.2355 0 0.339 c -0.471 0.0735 -1.037 0.2085 -1.407 0.333 c 0.229 0.0555 0.534 0.1335 0.758 0.1935 c 0.326 -0.102 0.674 -0.2715 0.826 -0.405 c 1.097 0.1575 1.875 0.951 1.781 1.275 c -0.49 0.0135 -1.142 0.042 -1.631 0.0765 l -0.88 -0.015 c -0.754 0.0675 -1.768 0.1545 -2.529 0.2235 c 0.03 0.129 0.076 0.3 0.114 0.4335 c -0.372 0.057 -0.862 0.1245 -1.234 0.186 c -0.489 -0.255 -0.983 -0.6285 -1.137 -0.9255 c -21.62 -0.315 -50.442 -0.738 -72.056 -1.0485 c 0.355 0.255 0.667 0.621 0.773 0.906 c -0.354 0.0765 -0.839 0.1755 -1.198 0.2535 c -0.559 -0.5475 -0.689 -0.72 -0.737 -1.335 c -0.918 -0.015 -2.127 -0.0315 -3.039 -0.0495 c -1.004 0.7815 3.051 5.622 4.785 7.686 c -0.178 0.129 -0.408 0.3015 -0.584 0.4305 l -6.389 -4.317 c -2.775 -3.1275 -2.775 -3.1275 -5.665 -3.024 c 0.578 1.422 -2.057 2.8455 0.048 4.2615 c 0.376 -0.018 0.867 -0.048 1.238 -0.0645 c -0.283 -0.2595 -0.549 -0.621 -0.696 -0.897 c 0.354 0.033 0.825 0.0765 1.186 0.111 c 0.594 0.573 5.777 5.658 4.951 7.1115 c -0.148 0.2445 0.69 0.555 1.268 0.7155 c -0.685 0.0735 -1.722 0.0555 -2.394 -0.0315 c -0.059 -0.5115 -0.607 -3.144 -4.973 -4.7925 c -0.078 0.297 -0.09 0.702 -0.06 1.0125 c -0.367 -0.051 -0.85 -0.108 -1.215 -0.156 c -1.385 -1.473 -2.499 -2.9865 -3.973 -4.4535 c 0.188 -0.105 0.448 -0.2505 0.636 -0.354 c -1.119 -0.9465 -1.119 -0.9465 -2.375 -1.221 c 0.042 0.165 0.094 0.387 0.135 0.5505 c -0.271 0.09 -0.63 0.2055 -0.896 0.2865 c -1.196 -0.2625 -1.638 -0.357 -1.531 -1.137 c -0.365 -0.0315 -0.849 -0.069 -1.215 -0.0975 c 0.731 -0.888 -0.99 -1.9125 -1.013 -1.9215 c -0.966 0.048 -2.251 0.111 -3.219 0.159 c 0.019 0.0225 1.475 2.406 0.389 3.273 c 0.525 0.3015 0.525 0.3015 1.019 5.1735 c 1.9 0.342 2.895 0.6015 0.691 1.458 c 0.178 0.1185 0.424 0.276 0.602 0.3945 c -1.733 0.906 0.313 1.9905 -1.19 2.9115 c -0.013 -0.009 -1.934 -1.8915 -2.835 -2.838 c -0.79 -0.126 -1.757 -0.375 -2.311 -0.6075 c -0.242 0.237 -0.711 0.537 -1.15 0.741 c 0.36 0.0915 0.832 0.207 1.185 0.291 c 0.065 0.135 0.148 0.321 0.218 0.4545 c 0.294 0.0675 0.697 0.1575 1.002 0.228 c -0.607 0.1755 -1.438 0.396 -2.085 0.555 c -0.826 -0.6255 -0.808 -0.6675 -0.578 -1.263 c -0.696 -0.0945 -1.609 -0.231 -2.269 -0.3525 c 1.749 3.0885 1.749 3.0885 1.031 3.4185 c -1.308 -0.2955 -1.993 -0.8895 -3.849 -0.9195 c 0.254 0.609 -0.488 1.2105 -0.219 1.827 l 23.141 0.357 c 0.046 -0.1815 0.718 -0.372 1.209 -0.4395 c 0.135 0.141 0.312 0.3225 0.447 0.4605 c 2.446 0 5.711 -0.0045 8.152 -0.009 c -0.078 -0.282 -0.19 -0.6585 -0.283 -0.9435 c 0.317 -0.09 0.743 -0.2115 1.066 -0.297 c 1.491 0.4665 1.793 0.612 2.27 1.4295 c 1.325 0.0195 3.1 0.048 4.426 0.0705 c 0.006 -0.129 0.03 -0.294 0.042 -0.414 c 0.377 0.006 0.879 0.018 1.262 0.0225 c 0.188 0.129 0.435 0.297 0.623 0.417 c 49.137 0.7815 67.397 1.068 105.542 1.776 c -29.599 -0.5145 -63.847 -1.0815 -105.571 -1.7715 c 2.381 2.364 3.472 4.8375 5.429 7.2315 c -3.301 -1.197 -7.333 -7.215 -7.344 -7.2615 c -2.223 0.129 -5.188 0.5595 -6.756 1.11 c -0.199 -0.3705 -0.482 -0.861 -0.695 -1.2315 l -9.819 -0.15 c -2.621 0.021 -5.653 0.1275 -8.774 0.219 c 0.083 0.0405 0.186 0.0765 0.24 0.1185 c 0.123 0.1125 -0.059 0.1905 -0.166 0.2325 l -1.203 -0.021 c -0.07 -0.1065 -0.124 -0.204 -0.158 -0.2985 c -5.966 0.156 -12.137 0.192 -16.434 -0.663 c -0.547 -0.387 -1.103 -0.7665 -1.714 -1.1445 c 0.118 0.0045 0.271 0.0045 0.382 0.009 c 0.502 -0.4095 -1.014 -1.026 0.619 -1.275 c -0.961 -0.561 -0.948 -1.284 -2.545 -1.74 c 0 0 -0.485 -0.0945 -1.032 0.219 c -0.279 0.1545 -0.465 0.2235 -1.102 0.189 c 1.02 0.477 1.308 0.762 0.942 1.443 c -0.319 0.585 -0.319 0.7305 -0.046 1.1145 c -0.92 0.06 -1.676 -0.1425 -2.535 -0.18 c 0.229 -0.216 0.825 -0.366 0.943 -0.6015 c 0.064 -0.135 -0.296 -0.411 -0.402 -0.4965 c -0.069 -0.0435 -0.141 -0.078 -0.213 -0.111 c -1.071 -0.474 -1.071 -0.474 -1.283 -0.6375 c -0.177 -0.0195 -0.537 -0.0435 -0.684 0.123 c -0.154 0.168 -0.26 0.2415 -1.109 0.126 c -0.07 -0.06 -0.159 -0.156 -0.129 -0.219 c 0.218 -0.0645 0.518 -0.0645 0.731 -0.1245 c 0.023 -0.069 -0.059 -0.159 -0.129 -0.2235 c -0.915 -0.0945 -1.292 -0.216 -1.851 -0.7245 c -0.049 -0.042 -0.107 -0.1065 -0.153 -0.1545 c -0.16 0.0345 -0.308 0.0735 -0.448 0.111 c -0.884 0.3885 -0.436 0.87 -0.867 1.2915 c -0.684 -0.2055 -1.232 -0.369 -2.411 -1.068 c -0.795 -0.465 -0.795 -0.465 -1.308 -0.4215 c -0.183 0.117 0.022 0.2325 0.005 0.345 c -0.005 0.0075 -0.59 0.4905 -2.033 -0.699 c -0.459 -0.3705 -0.602 -0.4125 -1.203 -0.5985 c -0.211 -0.027 -0.482 -0.06 -0.689 -0.0825 c -0.425 1.989 -0.524 2.4645 0.985 3.5685 l -0.089 0.5505 l -0.679 0.2625 c 0.203 0.1335 0.473 0.3105 0.673 0.444 c -0.47 0.189 -1.482 0.0915 -1.743 0.387 l -1.309 -0.021 c -1.332 0.1215 -3.113 0.2805 -4.445 0.3975 c 4.338 6.357 4.303 6.3825 2.417 7.7055 c -2.163 -1.2915 -2.369 -1.4685 -3.984 -2.8515 c -0.012 -0.0135 -0.034 -0.0255 -0.247 -0.1845 c -1.108 -0.561 -1.108 -0.561 -3.113 -2.787 l -1 -1.155 l -1.799 -1.308 c -0.07 -0.294 -0.165 -0.6915 -0.241 -0.9825 c -0.695 0.1545 -1.626 0.3525 -2.321 0.513 c -0.213 -0.2595 -0.49 -0.5985 -0.708 -0.8565 l -0.142 -0.3975 L 652 44.0475 c -6.448 0.456 -10.001 -0.4485 -18.589 -2.646 l -4.267 -0.4695 c -0.053 -0.108 -0.118 -0.255 -0.172 -0.363 c -26.275 -4.302 -26.275 -4.302 -59.554 -6.0675 c -43.545 -6.417 -48.154 -4.842 -50.631 -3.9975 c -1.296 -0.267 -2.675 -0.852 -3.147 -1.3395 c -24.914 -2.487 -51.284 -1.212 -76.292 -3.4335 c -15.571 -0.1635 -15.571 -0.1635 -17.53 0.6885 c -0.448 -0.2235 -1.049 -0.513 -1.498 -0.732 c -5.41 -0.2355 -5.41 -0.2355 -7.933 -0.0945 c -0.248 0.5685 -1.108 1.2915 -2.02 1.7745 c -9.91 -3.789 -45.321 -2.292 -49.86 -0.681 c -0.766 -0.102 -1.803 -0.249 -2.582 -0.357 c 0.112 -0.2955 0.249 -0.6885 0.354 -0.9855 c -1.791 0.138 -1.791 0.138 -8.481 -0.069 c -0.891 0.4575 -1.445 1.2195 -1.362 1.7655 c -0.859 0.138 -2.004 0.3195 -2.864 0.4575 c -0.625 -0.1755 -1.452 -0.408 -2.075 -0.5865 c 0.623 -0.2235 1.462 -0.5205 2.086 -0.7485 c -0.165 -0.276 -0.383 -0.6465 -0.554 -0.9255 c -1.898 0.033 -1.898 0.033 -54.673 -0.657 c -0.389 0.264 -0.902 0.6075 -1.285 0.867 c 2.688 0.861 6.625 0.7275 9.561 1.3995 c -0.613 0.219 -1.438 0.513 -2.058 0.7275 c -11.913 -0.7665 -11.913 -0.7665 -14.429 -0.759 c -0.429 -0.231 -0.995 -0.5325 -1.426 -0.7665 c 0.701 -0.1755 1.633 -0.405 2.334 -0.582 c -0.258 -0.2625 -0.607 -0.6165 -0.859 -0.8775 c -13.946 -0.8415 -28.428 0.3915 -42.174 -1.2405 c 0.083 0.2865 0.201 0.684 0.277 0.969 c -0.76 0.0735 -1.781 0.1635 -2.541 0.2325 c 1.622 0.2445 3.514 0.7755 4.658 1.2315 c -0.472 0.255 -1.098 0.594 -1.562 0.8445 c -1.716 -0.4995 -1.716 -0.4995 -7.739 -0.999 c 0.141 -0.2925 0.323 -0.681 0.464 -0.972 c -3.577 -1.6815 -3.577 -1.6815 -16.154 -2.0505 c -0.601 0.1845 -1.397 0.4305 -1.999 0.6195 c -4.734 -0.1155 -8.6 -1.1025 -13.067 -1.4895 c -0.66 0.198 -1.539 0.4575 -2.198 0.6465 c -6.277 -0.4215 -12.702 -0.5505 -18.885 -1.146 c 0.046 -0.138 0.112 -0.3195 0.152 -0.4575 c -1.433 0.219 -3.736 0.237 -5.251 0.0945 c -0.16 0.57 0.217 1.3575 0.862 1.8885 c -0.85 0.0135 -1.976 0.033 -2.819 0.051 c 0.354 0.24 0.826 0.5685 1.179 0.81 c -0.807 0.087 -1.875 0.198 -2.683 0.2805 c 7.635 1.089 7.635 1.089 13.361 3.3345 c -0.647 0.198 -1.509 0.462 -2.156 0.6675 c -0.083 -0.0225 -9.348 -1.758 -16.416 -0.879 c 1.486 0.231 3.132 0.81 3.878 1.3095 c -0.076 -0.0135 -8.516 -1.407 -14.422 -2.1705 c -0.354 0.24 -0.82 0.5595 -1.167 0.801 c 0.777 -0.078 1.815 -0.18 2.593 -0.2595 c -0.005 0.2685 -0.012 0.6345 -0.024 0.9015 c -1.709 -0.066 -3.966 -0.228 -5.611 -0.402 c -0.625 -0.4995 -2.027 -1.11 -3.371 -1.3995 c -0.177 0.2715 -0.413 0.633 -0.589 0.9045 c -5.118 -1.1745 -5.118 -1.1745 -7.08 -1.2105 c -0.478 0.249 -1.126 0.5775 -1.597 0.8265 c 2.204 1.1115 6.371 0.93 9.218 1.6215 c -0.094 0.291 -0.207 0.6795 -0.301 0.9705 c -1.598 -0.0945 -3.731 -0.231 -5.333 -0.3345 c 0.129 0.525 -0.178 1.257 -0.731 1.7475 c 1.437 0.207 3.083 0.723 3.901 1.1715 c -0.666 0.1545 -1.556 0.366 -2.215 0.516 c -3.159 -0.3945 -6.247 -0.8595 -9.4 -1.266 c -0.602 0.1845 -1.404 0.432 -2.012 0.6075 c 5.923 0.4995 5.923 0.4995 7.633 0.882 c -0.612 0.234 -1.432 0.5445 -2.051 0.777 c -1.431 -0.318 -3.449 -0.6945 -5.003 -0.939 c -1.403 -0.258 -3.396 -0.5175 -4.916 -0.6795 c -0.932 -2.208 -0.932 -2.208 -2.063 -2.7225 c 0.695 -0.1515 1.615 -0.3525 2.31 -0.4995 c -2.486 -1.335 -7.185 -1.4655 -10.673 -2.253 c 0.347 -0.2805 0.813 -0.6465 1.16 -0.9255 c 2.676 0.426 4.445 1.314 7.315 1.6275 c 0.184 -0.2865 0.423 -0.6705 0.602 -0.966 c 0.748 0.1335 1.75 0.3105 2.492 0.4395 c 0.224 0.297 0.513 0.699 0.731 0.996 c -0.577 0.186 -1.344 0.426 -1.921 0.615 c 0.813 0.0345 1.887 0.0945 2.693 0.129 c 0.336 0.243 0.795 0.57 1.137 0.8145 c 0.778 0.069 1.822 0.159 2.606 0.2325 c -0.778 -0.186 -1.815 -0.435 -2.594 -0.6195 c 1.127 -1.6065 1.127 -1.6065 5.907 -2.973 c -0.814 -0.4695 -1.437 -1.1925 -1.515 -1.74 c 3.172 0.381 3.826 0.4545 8.305 0.057 c 0.325 -0.276 0.755 -0.639 1.078 -0.9045 c -1.467 -0.267 -3.024 -0.879 -3.73 -1.3935 c 0.689 -0.1335 1.614 -0.3135 2.304 -0.4515 c -0.235 -0.288 -0.548 -0.6675 -0.785 -0.948 c -1.59 -0.0915 -3.843 -0.0255 -5.344 0.1725 c 0.712 0.138 1.656 0.318 2.363 0.456 c -0.626 0.4785 -2.228 1.0305 -3.666 1.224 c 0.129 0.2145 0.294 0.4995 0.423 0.7185 c -1.503 -0.168 -1.503 -0.168 -8.293 -0.423 c 1.42 0.3705 3.388 0.837 4.926 1.143 c -0.07 0.2715 -0.169 0.6285 -0.246 0.8955 c -0.731 0.087 -1.704 0.198 -2.435 0.2835 c 0.471 0.2835 1.09 0.663 1.562 0.939 c -2.517 -0.1245 -5.123 -0.258 -11.664 -1.119 c 0.129 -0.5265 -0.408 -1.266 -1.308 -1.698 c -0.814 0.0705 -1.899 0.1635 -2.701 0.237 c 0.313 0.246 0.731 0.573 1.05 0.8145 c -0.767 -0.0615 -1.792 -0.147 -2.558 -0.2115 l 2.257 3.6345 h -0.036 c 0.524 0.513 1.221 1.194 1.75 1.7025 c 0.814 0.027 1.91 0.0645 2.724 0.0945 c 0 0.2925 0 0.6795 0 0.981 c -0.78 -0.0555 -1.815 -0.1245 -2.595 -0.177 l 0.019 0.402 c -0.002 0 -0.002 -0.0045 -0.005 -0.009 c -0.56 -0.051 -1.114 -0.102 -1.674 -0.1455 c -4.25 -0.2685 -2.24 1.0845 -2.215 1.101 c 0.435 0.246 1.135 0.426 1.485 0.6975 c 1.266 -0.2505 2.445 0.2415 4.077 0.936 c -0.166 -0.264 -0.368 -0.5745 -0.564 -0.876 l 0.653 1.0095 l 2.211 3.255 l -0.019 0.0225 c 1.314 0.8415 1.314 0.8415 6.49 2.181 c -0.809 -0.0315 -1.885 -0.0825 -2.688 -0.117 c 1.061 0.405 2.528 0.939 3.654 1.3275 c -1.543 -0.117 -3.665 -0.1905 -5.251 -0.1905 c -0.002 -0.003 -0.004 -0.006 -0.006 -0.009 c -0.317 0.0345 -0.624 0.0735 -0.919 0.1215 c 0.013 0.0075 0.025 0.0165 0.041 0.0165 c 0.408 0.216 0.876 0.285 1.197 0.3135 l 0.408 0.582 c 1.225 0.8715 2.852 2.0505 4.544 2.8305 c -0.814 -0.072 -1.893 -0.174 -2.699 -0.2445 c 6.948 2.6715 17.458 1.647 25.814 2.8605 c 2.778 0.873 3.679 0.8955 7.503 0.624 l 0.844 0.2925 c 0.448 -0.0915 1.049 -0.2115 1.498 -0.297 c 21.359 1.9065 21.359 1.9065 23.834 2.5545 c -2.948 0.582 -2.948 0.582 -13.667 -0.0825 c -0.497 0.2325 -1.162 0.5415 -1.657 0.7755 c 8.917 1.4655 19.115 1.7055 27.843 3.351 c -14.015 -0.327 -27.23 -2.343 -41.435 -2.2755 c -2.08 -0.534 -24.401 -1.275 -25.699 -1.239 l 3.065 3.738 c 1.061 -0.0945 2.559 0.0345 3.654 0.078 c 5.132 -1.509 5.132 -1.509 6.106 -1.638 c 3.867 2.124 11.317 1.578 16.692 2.577 c 0.129 -0.0045 15.596 0.3615 20.817 1.521 c 6.86 0.198 15.997 0.4605 22.856 0.654 c -0.448 -0.2535 -1.031 -0.5895 -1.473 -0.8385 c 14.63 0.6795 15.831 0.735 20.004 1.7175 c 0.042 0.0045 0.081 0.0045 0.121 0.0045 c -0.156 -0.0045 -0.306 -0.0075 -0.462 -0.012 c -0.342 -0.0825 -0.613 -0.2115 -1.048 -0.246 h -0.036 l -0.035 0.207 c -10.01 0.57 -10.01 0.57 -16.493 -0.582 c -26.69 -0.6585 -26.69 -0.6585 -32.265 -0.951 c -0.282 0.1455 -0.659 0.3435 -0.947 0.4905 c -4.28 -0.561 -8.907 -0.5775 -13.293 -0.9825 c -2.309 0.3705 -4.702 0.06 -7.06 0.1035 c -0.183 0.282 -0.437 0.663 -0.625 0.9435 c 1.627 0.159 3.56 0.6945 4.427 1.179 c -9.62 -0.072 -9.62 -0.072 -18.621 -1.176 l -0.035 -0.003 c 1.084 0.8055 2.535 1.8825 3.614 2.691 c 7.62 0.552 7.62 0.552 8.381 0.5775 c 4.472 0.75 10.007 0.594 13.902 1.854 c -2.379 -0.1605 -2.379 -0.1605 -8.77 -0.8025 c -0.777 0.156 -1.81 0.366 -2.582 0.5265 c 2.215 0.939 2.735 1.161 7.437 0.861 c 0.03 -0.018 0.061 -0.027 1.845 -0.1635 c 0.962 0.4395 1.824 1.137 2.058 1.671 c -4.178 0.018 -8.163 -0.4605 -12.294 -0.555 c -0.83 -1.761 -1.891 -1.8435 -10.114 -2.4945 h -0.036 l 1.486 1.767 l 0.318 0.3405 c -0.601 -0.249 -1.181 -0.513 -1.899 -0.7185 c 0.343 -0.042 0.795 -0.102 1.133 -0.1515 c -0.636 -0.36 -1.486 -0.8475 -2.122 -1.206 c -2.984 -0.0915 -2.984 -0.0915 -9.489 -1.6665 c 0.023 -0.1245 0.059 -0.288 0.082 -0.414 c 5.854 0.195 6.289 0.2235 9.128 0.423 c -0.925 -0.792 -2.149 -1.8525 -3.081 -2.6535 c -2.081 -0.027 -3.832 -0.5175 -5.941 -0.51 c -0.408 -0.4395 0.047 -0.921 -0.488 -1.356 c 0.076 -0.0735 0.194 -0.168 0.275 -0.24 c 3.514 0.2145 3.75 0.021 4.734 -0.8055 c -0.915 -1.1295 -2.116 -2.628 -3.024 -3.762 c -2.882 -0.2715 -2.882 -0.2715 -3.394 -0.288 c -0.237 0.0915 -0.544 0.2085 -0.769 0.294 c -1.249 -0.69 -1.249 -0.69 -6.676 -0.9825 c 0.07 0.111 0.159 0.258 0.224 0.3705 c -3.248 -1.026 -7.847 -1.2495 -11.254 -2.184 c 0.189 0.2625 0.326 0.633 0.307 0.9 c -1.167 -0.06 -2.299 -0.162 -3.46 -0.231 c -2.419 0.4245 -4.519 0.5085 -6.437 0.3975 c -0.113 -0.0105 -0.228 -0.0165 -0.341 -0.0255 c -5.145 -0.3675 -8.967 -2.1525 -13.953 -2.691 c 0.19 -0.1095 0.45 -0.2565 0.638 -0.369 c 0.33 0.027 0.778 0.069 1.108 0.102 c 0.801 -0.0675 1.993 -0.0465 2.758 0.0705 c 0.336 -0.051 0.791 -0.1215 1.126 -0.1725 c 0.229 0.087 0.537 0.1995 0.772 0.2835 c 0.023 -0.1815 0.048 -0.4125 0.066 -0.594 c 0.346 -0.0165 0.807 -0.0465 1.16 -0.0645 c -40.457 -3.072 -40.457 -3.072 -42.134 -2.8395 c 4.364 1.392 11.391 0.7065 15.504 2.286 c 0.106 -0.063 0.249 -0.1545 0.349 -0.219 c 0.218 0.0915 0.512 0.213 0.723 0.3015 c -0.094 -0.111 -0.211 -0.2625 -0.306 -0.378 c 14.965 0.801 14.965 0.801 16.037 1.434 c -0.289 0.0645 -0.659 0.1515 -0.937 0.2175 c 0.254 0.0975 0.589 0.2355 0.849 0.339 c -0.082 0.1215 -0.207 0.294 -0.296 0.4125 c -0.141 -0.0075 -14.474 -0.801 -16.325 -1.554 c -0.626 -0.2535 -10.18 -2.8395 -12.814 -0.477 c 0.896 0.5505 0.896 0.5505 0.849 1.026 c -2.063 -0.216 -2.063 -0.216 -3.393 -0.027 c -4.219 -0.591 -8.997 -0.5865 -13.528 -0.8445 c 2.325 0.282 4.592 0.612 6.698 1.095 c 3.11 -0.3615 16.2 1.3035 16.33 1.3215 c 0.754 0.6075 0.425 1.65 0.419 1.6575 c -0.242 -0.2235 -0.736 -0.4995 -1.184 -0.6885 c -0.154 0.1125 -0.367 0.267 -0.52 0.3795 c -0.276 -0.069 -0.653 -0.1725 -0.93 -0.2415 c 0.034 -0.1305 0.087 -0.306 0.129 -0.4365 c -0.33 0.0345 -0.761 0.0825 -1.08 0.117 c -0.294 -0.0735 -0.688 -0.171 -0.983 -0.24 c 0.023 0.138 0.072 0.327 0.101 0.465 c -2.445 0.0825 -7.07 -0.4005 -8.364 -0.723 c -1.483 0.3015 -2.093 0.4215 -6.628 -0.4905 c 0.041 -0.12 0.102 -0.2805 0.151 -0.4005 c -1.516 -0.462 -2.25 -0.5385 -13.004 -1.344 c -0.218 0.0915 -0.51 0.2025 -0.725 0.288 c -0.219 -0.081 -0.518 -0.198 -0.736 -0.2835 c 0.955 0.582 0.977 0.624 1.345 1.3995 c -7.696 -1.0965 -9.737 -0.96 -11.091 -0.864 c 4.58 0.6285 12.243 1.6845 15.485 3.4365 c -1.329 0.2235 -1.329 0.2235 -4.86 -0.051 c -0.258 0.0735 -0.613 0.171 -0.876 0.249 c -1.616 -0.162 -3.293 -0.249 -4.874 -0.456 c -0.221 -0.087 -0.516 -0.216 -0.74 -0.306 c -7.445 0.1245 -11.337 -2.331 -17.902 -2.838 c 0.126 0.216 0.628 0.4935 1.15 0.6285 c -0.137 0.111 -0.319 0.249 -0.457 0.3525 c -2.288 -0.426 -4.794 -0.693 -7.249 -0.999 v 40 H 1920.12 z m -683.16 -22.719 c 0.143 0.117 0.33 0.2685 0.48 0.384 c 8.008 -0.5325 16.012 0.912 24.029 0 c -0.113 -0.1095 -0.258 -0.2625 -0.367 -0.378 c 1.393 -0.0615 2.461 -0.423 3.842 -0.4965 c 0.238 -0.1065 0.545 -0.2625 0.781 -0.375 c -0.236 -0.051 -0.543 -0.1335 -0.781 -0.192 c 0.627 0.1065 1.449 0.249 2.064 0.3615 c 0.119 -0.117 0.287 -0.2685 0.412 -0.3855 c -0.34 -0.0255 -0.793 -0.06 -1.129 -0.0825 c -0.027 -0.114 -0.059 -0.2715 -0.084 -0.3825 c 1.473 0.1635 1.473 0.1635 2.998 0.9225 c 0.266 -0.087 0.619 -0.195 0.885 -0.282 c -0.113 -0.1065 -0.27 -0.2595 -0.383 -0.3705 c 2.838 0.0645 5.422 0.8055 8.461 0.375 c -0.008 -0.12 -0.008 -0.288 -0.008 -0.4065 c -0.73 -0.042 -1.768 -0.03 -2.477 0.0435 c -0.426 -0.138 -0.977 -0.327 -1.402 -0.4725 c 0.719 0.0165 1.703 -0.1035 2.297 -0.2415 c -0.424 -0.147 -0.424 -0.147 -3.24 -0.4215 c -0.223 0.087 -0.529 0.2055 -0.752 0.3015 c 0.088 0.111 0.217 0.2625 0.309 0.378 c -0.215 0.0915 -0.5 0.219 -0.723 0.3105 c -1.721 -0.138 -2.219 -0.189 -4.314 -0.7665 c 0.141 -0.1125 0.316 -0.255 0.457 -0.3615 c -0.275 -0.138 -0.641 -0.3195 -0.916 -0.456 c 0.322 -0.075 0.768 -0.177 1.082 -0.252 c 0.666 0.0795 1.557 0.165 2.24 0.2235 c 0.27 -0.078 0.627 -0.1845 0.902 -0.258 c -1.008 -0.2325 -2.24 -0.3195 -3.236 -0.564 c 0.014 -0.1245 0.025 -0.288 0.025 -0.414 c -4.662 -0.2115 -10.043 -0.4575 -15.479 -0.705 l 15.479 0.705 c 0.365 -0.1155 1.197 -0.123 1.66 -0.0645 l 20.842 0.4665 c 0.566 0.1635 1.51 0.318 2.24 0.3615 c -0.072 -0.2205 -0.104 -0.315 0.375 -0.444 c 0.498 -0.129 0.521 -0.159 0.535 -0.357 c -0.688 -0.207 -1.398 -0.3705 -3.371 -0.3435 c -1.047 0.0165 -1.748 -0.027 -2.229 -0.2925 c -0.049 -0.018 -0.098 -0.057 -0.135 -0.087 c 2.455 -0.147 5.031 0.216 7.422 -0.198 c 0.785 0.24 1.387 0.327 2.826 0.408 c 4.689 0.204 4.689 0.204 4.975 0.276 c 0.021 0.0045 1.164 0.6855 -0.078 0.8415 c -0.254 -0.1305 -0.299 -0.156 -0.141 -0.3375 c 0.129 -0.138 -0.078 -0.1815 -0.584 -0.2715 c -0.336 0.1755 -0.613 0.198 -1.975 0.168 c -1.629 -0.039 -1.973 0.051 -1.838 0.4905 c 0.824 0.087 1.725 0.0345 2.537 0.147 c 0.576 0.0735 0.676 0.1335 0.729 0.2835 c -2.023 -0.18 -4.412 0.228 -6.125 -0.4395 c 0.189 -0.1335 0.424 -0.246 1.244 -0.129 c 0.973 0.1455 1.113 -0.009 1.248 -0.156 c -0.238 -0.147 -0.566 -0.336 -0.805 -0.477 c -0.891 0.0375 -1.807 -0.039 -2.676 0.0825 c -0.652 0.0915 -0.738 0.162 -1.063 0.4395 c 0.564 0.24 1.461 0.351 1.99 0.6015 c 0.391 0.1815 0.379 0.1815 0.006 0.345 c -0.475 -0.3375 -1.068 -0.3975 -2.869 -0.552 l -0.035 0.4305 c -2.498 0.5865 -2.498 0.5865 -3.748 0.7755 c -0.059 -0.138 -0.119 -0.3225 -0.172 -0.4575 c -2.256 -0.405 -4.824 -0.216 -7.172 -0.447 c -0.26 0.09 -0.613 0.207 -0.873 0.3015 c 0.207 0.111 0.482 0.249 0.686 0.3615 c 0.35 0.0075 0.824 0.021 1.188 0.0315 c 0.215 0.2145 0.26 0.5415 0.096 0.762 c 0.012 0.009 3.291 1.5165 4.697 2.2395 c -1.174 0.4605 -1.174 0.4605 -3.732 0.456 c 0.59 0.5385 0.59 0.5385 1.35 0.8025 c 0.307 -0.0555 0.713 -0.138 1.02 -0.1905 c 0.285 0.069 0.664 0.159 0.945 0.228 c -1.068 0.4335 -2.783 0.4725 -4.078 0.771 c -2.063 -0.2265 -2.271 -0.1935 -5.684 0.393 c -0.105 0.0135 -0.223 0.0255 -0.33 0.039 c -0.684 0.0165 -1.615 -0.075 -2.193 -0.195 c 0.346 0.018 0.805 0.0375 1.143 0.051 c 0.262 -0.0735 0.609 -0.177 0.871 -0.2535 c -1.518 -0.018 -3.023 0 -4.529 0.0435 l -0.375 -0.273 l -0.842 -0.0375 l -0.012 0.3465 c -0.352 0.0105 -0.701 0.0225 -1.045 0.0315 c 0.064 -0.0945 0.139 -0.189 0.197 -0.276 c -0.229 -0.0915 -0.533 -0.2235 -0.752 -0.3195 c -5.156 0.1215 -10.111 -0.6555 -15.297 -0.396 c -0.152 0.1125 -0.352 0.267 -0.5 0.384 c -0.691 -0.078 -1.527 -0.246 -2.066 -0.405 c -0.352 0.0315 -0.805 0.081 -1.143 0.114 c 0.492 0.186 1.105 0.4485 1.504 0.66 c -0.682 0.033 -1.613 0.0375 -2.299 0.003 c -0.01 -0.24 0.07 -0.5685 0.219 -0.8085 c -12.453 -0.153 -13.361 -0.8715 -13.902 -1.3005 C 1236.49 55.608 1236.76 55.458 1236.96 55.344 Z M 1015.59 41.823 c -3.736 -0.0975 -7.645 -0.201 -11.541 -0.303 L 1015.59 41.823 Z M 962.423 43.608 c 0.07 -0.069 0.201 -0.147 0.615 -0.1155 c 0.447 0.327 -0.029 0.597 -0.572 0.594 c -0.094 -0.0045 -0.313 -0.012 -0.514 -0.1125 c -0.047 -0.021 -0.092 -0.0585 -0.135 -0.09 C 962.147 43.884 962.147 43.884 962.423 43.608 Z M 953.056 46.92 c 0.603 -0.1425 1.148 -0.0465 1.148 -0.0465 c 0.528 0.18 0.558 0.369 0.675 1.017 c -0.796 -0.0705 -1.191 -0.018 -1.559 0.0345 c -0.271 0.042 -0.492 0.072 -0.833 0.072 c -0.046 0 -0.106 -0.0045 -0.16 -0.0045 c 0.324 -0.4215 0.292 -0.5775 -0.204 -1.026 C 952.583 47.019 952.804 46.9755 953.056 46.92 Z M 952.924 48.867 c -0.1 0.126 -0.224 0.288 -0.321 0.4095 l -0.506 -0.147 C 952.134 48.915 952.186 48.7935 952.924 48.867 Z M 942.672 45.042 l 0.063 0.3015 l -0.884 -0.018 l -0.058 -0.306 L 942.672 45.042 Z M 941.288 48.7545 c -0.364 0.099 -0.603 0.243 -1.002 0.324 c -0.387 0.0825 -0.648 0.078 -0.944 0.078 c -0.161 -0.0045 -0.31 -0.0255 -0.469 -0.0345 c -0.025 0 -0.061 0 -0.083 0 c -0.058 -0.261 -0.132 -0.606 -0.179 -0.8655 C 941.036 48.7335 941.036 48.7335 941.288 48.7545 Z M 931.031 46.959 l 0.495 0.432 l -1.281 -0.027 l -0.095 -0.4215 L 931.031 46.959 Z M 927.653 54.471 c -0.333 0.1155 -0.556 0.129 -0.643 0.129 c -0.045 0 -0.174 -0.009 -0.28 -0.0615 c -0.073 -0.0315 -0.092 -0.072 -0.092 -0.1185 C 926.643 54.42 926.694 54.135 927.653 54.471 Z M 921.962 44.745 c -0.144 -0.318 -0.772 -0.603 -0.597 -0.942 c 0.115 -0.2205 0.879 -0.1995 1.172 -0.195 c 0.568 0.6795 0.827 0.9945 -0.437 1.119 C 922.063 44.7375 922.003 44.7375 921.962 44.745 Z M 922.511 49.3665 l -0.061 -0.279 l 0.879 0.0165 l 0.066 0.276 L 922.511 49.3665 Z M 923.217 46.8 l 0.885 0.0135 l 0.057 0.282 l -0.884 -0.0165 L 923.217 46.8 Z M 923.938 49.9725 l -0.074 -0.3 l 0.873 0.018 l 0.077 0.3015 L 923.938 49.9725 Z M 925.245 39.7575 c 0.434 0.228 -0.095 0.3225 -0.626 0.318 c -0.29 -0.012 -0.479 -0.036 -0.583 -0.09 c -0.052 -0.027 -0.063 -0.057 -0.058 -0.0915 C 924.426 39.8775 924.765 39.7485 925.245 39.7575 Z M 920.602 41.049 c 0.14 -0.1635 0.186 -0.177 0.565 -0.2055 c 2.05 0.822 2.05 0.822 3.167 0.9285 c -0.126 0.4305 -0.6 0.474 -1.436 0.51 c -0.724 0.0315 -1.08 0.0855 -1.378 0.3 l -0.953 -0.3285 c 0.448 0.009 1.375 0.009 1.235 -0.1965 c -0.106 -0.1485 -0.672 -0.3495 -1.224 -0.543 c -0.252 -0.087 -0.511 -0.168 -0.694 -0.2775 C 920.418 41.274 920.51 41.157 920.602 41.049 Z M 890.575 46.968 c 0.131 -0.24 1.145 -0.2145 1.592 0.0345 c 0.005 0.0075 0.019 0.0165 0.024 0.0165 c 0.081 0.0615 0.129 0.1215 0.141 0.186 l -1.697 -0.03 C 890.58 47.1045 890.54 47.037 890.575 46.968 Z M 892.083 49.7415 c -0.294 -0.0135 -0.553 -0.0825 -0.789 -0.2115 c -0.072 -0.033 -0.13 -0.069 -0.166 -0.108 c -0.023 -0.0255 -0.513 -0.5295 1.704 -0.1755 C 892.755 49.4745 892.604 49.7415 892.083 49.7415 Z M 891.924 48.7815 c -0.027 0 -0.057 0 -0.087 0.003 c -0.56 -0.4305 -0.353 -0.537 0.703 -0.7155 C 892.674 48.39 892.827 48.7545 891.924 48.7815 Z M 892.638 46.791 c -0.636 -0.0135 -1.373 -0.0435 -1.85 -0.2685 c -0.343 -0.1575 -0.402 -0.357 -0.396 -0.357 c -0.046 -0.258 0.094 -0.525 0.077 -0.783 c -0.013 -0.1935 -0.053 -0.3885 0.012 -0.585 c 0.105 -0.3015 0.388 -0.468 1.131 -0.648 C 892.403 45.09 892.45 45.3825 892.638 46.791 Z M 890.51 39.0645 c 0.235 0.387 0.218 0.606 -0.553 0.6015 c -0.184 -0.0045 -0.367 -0.009 -0.537 -0.021 c -0.024 -0.009 -0.059 -0.015 -0.083 -0.015 C 889.616 39.0765 889.625 39.0495 890.51 39.0645 Z M 884.911 40.7385 c 0.218 -0.921 0.548 -1.0965 1.427 -1.1625 c 0.199 0.153 0.501 0.381 1.103 0.504 c 1.042 0.219 2.333 0.2295 3.376 0.4545 c -0.041 0.3465 -0.041 0.3465 1.102 1.026 c -1.938 0.249 -1.938 0.249 -2.493 0.3945 c -0.242 -0.7905 -0.242 -0.804 -1.078 -0.8865 c -0.944 1.5585 -0.944 1.5585 -2.169 1.8345 c 1.133 0.2925 0.006 0.6855 0.229 1.017 c -0.406 0.015 -0.771 -0.042 -0.771 -0.042 c -0.702 -0.12 -1.015 -0.5865 -0.343 -0.9825 c 0.124 0 0.283 0 0.408 0.0045 c -0.814 -0.24 -0.791 -0.6375 -1.492 -0.8955 C 884.606 41.7135 884.716 41.5665 884.911 40.7385 Z M 878.263 42.342 l 0.064 0.2805 l -0.883 -0.012 l -0.064 -0.2835 L 878.263 42.342 Z M 878.469 43.611 c 0.602 0.105 0.813 0.0795 0.942 -0.102 c -1.473 -0.063 -2.016 -0.276 -1.932 -0.762 c 0.529 0.012 1.231 0.0225 1.762 0.033 c 0.159 0.4305 0.478 0.861 0.483 1.3005 c 0.006 0.345 -0.294 0.5865 -0.473 0.7365 c -0.552 -0.009 -0.977 -0.147 -1.497 -0.186 c -0.075 -0.003 -0.169 -0.003 -0.234 -0.0075 c -0.254 -0.1935 -0.395 -0.3525 0.094 -0.6585 c 0.125 -0.0825 0.402 -0.138 0.319 -0.249 c -0.095 -0.126 -0.454 -0.168 -0.691 -0.2475 C 877.549 43.4625 877.549 43.4625 878.469 43.611 Z M 868.02 52.236 c -0.043 0.0945 0.004 0.18 0.116 0.348 c 0.172 0.276 0.172 0.393 -0.3 0.393 c -0.124 -0.006 -0.249 -0.006 -0.359 -0.0225 c -0.012 0 -0.03 -0.0045 -0.047 -0.009 C 867.259 52.5675 867.434 52.353 868.02 52.236 Z M 860.385 42.279 c -0.347 -0.1485 -0.471 -0.213 0.184 -0.255 c 0.094 0.087 0.2 0.129 0.513 0.231 c 0.412 0.1305 0.66 0.2325 0.541 0.5085 c -0.129 0.027 -0.258 0.027 -0.4 0.027 c -0.595 -0.0165 -1.096 -0.1335 -1.249 -0.207 c -0.224 -0.1065 0.165 -0.135 0.294 -0.147 c 0.129 0.0465 0.308 0.1065 0.437 0.156 C 860.809 42.4965 860.739 42.423 860.385 42.279 Z M 861.281 44.8485 c -0.27 -0.009 -0.524 -0.0345 -0.767 -0.0705 c -0.04 -0.0045 -0.093 -0.0165 -0.129 -0.0165 c 0.414 -0.3195 0.2 -0.522 -0.389 -0.906 c -0.591 -0.4005 -0.836 -0.6285 -0.496 -0.9855 c 0.826 -0.027 1.45 0.1155 1.745 0.2115 C 862.708 43.5225 863.315 44.832 861.281 44.8485 Z M 722.641 67.23 c -0.004 -0.009 -0.004 -0.009 -0.007 -0.0135 l -0.31 -0.5985 L 722.641 67.23 Z" stroke="#fffffff" stroke-width="0.1" fill="#171717"/>
</svg>